<svg width="109" height="24" viewBox="0 0 109 24" fill="none" xmlns="http://www.w3.org/2000/svg">
<mask id="mask0_19_82" style="mask-type:alpha" maskUnits="userSpaceOnUse" x="0" y="0" width="15" height="15">
<path d="M13.9112 4.448C14.1499 5.02124 14.3165 5.63181 14.3999 6.2685L13.9042 6.33342C13.9418 6.62062 13.9612 6.91373 13.9612 7.21162C13.9612 7.50951 13.9418 7.80262 13.9042 8.08981L14.3999 8.15474C14.3165 8.79142 14.1499 9.402 13.9112 9.97523L13.4496 9.78306C13.2225 10.3286 12.9252 10.8381 12.5687 11.3001L12.9645 11.6056C12.5793 12.1049 12.13 12.5525 11.6288 12.9361L11.3249 12.5391C10.8617 12.8936 10.3511 13.1893 9.8044 13.4152L9.99528 13.8773C9.42161 14.1143 8.81071 14.2797 8.17376 14.3624L8.10934 13.8666C7.82195 13.9039 7.52866 13.9232 7.2306 13.9232C6.93253 13.9232 6.63924 13.9039 6.35185 13.8666L6.28743 14.3624C5.65049 14.2797 5.03959 14.1143 4.46591 13.8773L4.65679 13.4152C4.11006 13.1893 3.59948 12.8936 3.13627 12.5391L2.83236 12.9361C2.33121 12.5525 1.88188 12.1049 1.49664 11.6056L1.89252 11.3001C1.53602 10.8381 1.23867 10.3286 1.01154 9.78306L0.549949 9.97523C0.311297 9.402 0.144653 8.79142 0.0612743 8.15474L0.557041 8.08981C0.519431 7.80262 0.5 7.50951 0.5 7.21162C0.5 6.91373 0.519431 6.62062 0.557041 6.33342L0.0612743 6.2685C0.144653 5.63181 0.311297 5.02124 0.549949 4.448L1.01154 4.64018C1.23867 4.09463 1.53602 3.58518 1.89252 3.12309L1.49664 2.81767C1.88188 2.31834 2.33121 1.87074 2.83236 1.48714L3.13627 1.88418C3.59948 1.52962 4.11006 1.2339 4.65679 1.00807L4.46591 0.545942C5.03958 0.308985 5.65048 0.143553 6.28743 0.0607965L6.35185 0.556629C6.63924 0.519289 6.93253 0.5 7.2306 0.5C7.52866 0.5 7.82195 0.519289 8.10934 0.556629L8.17376 0.0607965C8.81071 0.143553 9.42161 0.308984 9.99528 0.545941L9.8044 1.00807C10.3511 1.2339 10.8617 1.52962 11.3249 1.88418L11.6288 1.48714C12.13 1.87074 12.5793 2.31834 12.9645 2.81767L12.5687 3.12309C12.9252 3.58518 13.2225 4.09463 13.4496 4.64018L13.9112 4.448Z" fill="#D9D9D9" stroke="white" stroke-dasharray="2 2"/>
</mask>
<g mask="url(#mask0_19_82)">
<path fill-rule="evenodd" clip-rule="evenodd" d="M5.06581 14.4419L6.29937 14.4364L6.82359 8.3783L12.2565 12.8208L13.1085 11.9287L8.48655 6.73917L14.4445 6.22544L14.4385 4.99189L8.27616 4.49523L12.259 -0.245609L11.382 -1.11308L6.74093 2.84095L6.21962 -3.22632L4.98606 -3.22075L4.48914 2.92181L-0.371959 -0.945448L-1.22393 -0.0533542L2.7662 4.47493L-3.22412 5.07697L-3.21818 6.31052L2.73293 6.82368L-1.03898 11.4447L-0.161955 12.3122L4.46214 8.417L5.06581 14.4419Z" fill="url(#paint0_radial_19_82)"/>
</g>
<path d="M21.3659 20.3627C21.3203 20.9179 21.211 21.4186 21.0379 21.8646C20.874 22.3106 20.6462 22.6929 20.3547 23.0115C20.0723 23.321 19.7261 23.5622 19.3162 23.7351C18.9063 23.899 18.4371 23.9809 17.9088 23.9809C17.344 23.9809 16.8429 23.8853 16.4057 23.6942C15.9684 23.4939 15.604 23.2117 15.3125 22.8477C15.021 22.4836 14.7978 22.0466 14.6429 21.5369C14.4972 21.0272 14.4243 20.4537 14.4243 19.8165V18.5877C14.4243 17.9505 14.4972 17.3771 14.6429 16.8673C14.7978 16.3485 15.021 15.9116 15.3125 15.5566C15.604 15.1925 15.9684 14.9149 16.4057 14.7237C16.8429 14.5235 17.344 14.4233 17.9088 14.4233C18.9655 14.4233 19.7808 14.751 20.3547 15.4064C20.9377 16.0527 21.2748 16.9311 21.3659 18.0416H20.2864C20.25 17.6593 20.1771 17.3134 20.0678 17.0039C19.9676 16.6944 19.8218 16.4304 19.6305 16.212C19.4392 15.9844 19.1978 15.8115 18.9063 15.6931C18.6239 15.5748 18.2914 15.5156 17.9088 15.5156C17.4806 15.5156 17.1162 15.5885 16.8156 15.7341C16.515 15.8797 16.2645 16.0891 16.0641 16.3622C15.8728 16.6261 15.7316 16.9493 15.6405 17.3316C15.5494 17.7048 15.5038 18.1235 15.5038 18.5877V19.8165C15.5038 20.2808 15.5494 20.704 15.6405 21.0863C15.7316 21.4595 15.8728 21.7827 16.0641 22.0557C16.2645 22.3197 16.515 22.5245 16.8156 22.6702C17.1162 22.8158 17.4806 22.8886 17.9088 22.8886C18.2914 22.8886 18.6239 22.8294 18.9063 22.7111C19.1978 22.5837 19.4392 22.4107 19.6305 22.1923C19.8218 21.9738 19.9676 21.7098 20.0678 21.4004C20.1771 21.0909 20.25 20.745 20.2864 20.3627H21.3659Z" fill="white"/>
<path d="M23.7413 18.5877C23.7413 17.9505 23.8141 17.3771 23.9599 16.8673C24.1148 16.3485 24.338 15.9116 24.6295 15.5566C24.921 15.1925 25.2854 14.9149 25.7226 14.7237C26.1599 14.5235 26.6609 14.4233 27.2257 14.4233C27.7905 14.4233 28.287 14.5235 28.7151 14.7237C29.1524 14.9149 29.5168 15.1925 29.8083 15.5566C30.1089 15.9116 30.3321 16.3485 30.4779 16.8673C30.6327 17.3771 30.7102 17.9505 30.7102 18.5877V19.8165C30.7102 20.4446 30.6327 21.0181 30.4779 21.5369C30.3321 22.0466 30.1089 22.4836 29.8083 22.8477C29.5168 23.2117 29.1524 23.4939 28.7151 23.6942C28.287 23.8853 27.7905 23.9809 27.2257 23.9809C26.6609 23.9809 26.1599 23.8853 25.7226 23.6942C25.2854 23.4939 24.921 23.2117 24.6295 22.8477C24.338 22.4836 24.1148 22.0466 23.9599 21.5369C23.8141 21.0272 23.7413 20.4537 23.7413 19.8165V18.5877ZM24.8208 18.5877V19.8165C24.8208 20.2808 24.8663 20.704 24.9574 21.0863C25.0485 21.4595 25.1897 21.7827 25.381 22.0557C25.5814 22.3197 25.8319 22.5245 26.1326 22.6702C26.4332 22.8158 26.7976 22.8886 27.2257 22.8886C27.6539 22.8886 28.0183 22.8158 28.3189 22.6702C28.6195 22.5245 28.8655 22.3197 29.0568 22.0557C29.2481 21.7827 29.3893 21.4595 29.4804 21.0863C29.5715 20.704 29.617 20.2808 29.617 19.8165V18.5877C29.617 18.1235 29.5715 17.7048 29.4804 17.3316C29.3893 16.9493 29.2481 16.6261 29.0568 16.3622C28.8655 16.0891 28.6195 15.8797 28.3189 15.7341C28.0183 15.5885 27.6539 15.5156 27.2257 15.5156C26.7976 15.5156 26.4332 15.5885 26.1326 15.7341C25.8319 15.8797 25.5814 16.0891 25.381 16.3622C25.1897 16.6261 25.0485 16.9493 24.9574 17.3316C24.8663 17.7048 24.8208 18.1235 24.8208 18.5877Z" fill="white"/>
<path d="M38.9811 17.8231H37.888C37.888 17.4863 37.8379 17.1859 37.7377 16.922C37.6375 16.6489 37.4872 16.4168 37.2867 16.2256C37.0954 16.0254 36.854 15.8752 36.5625 15.7751C36.2801 15.6658 35.9567 15.6112 35.5923 15.6112C34.8545 15.6112 34.3124 15.7386 33.9663 15.9935C33.6201 16.2484 33.447 16.6398 33.447 17.1677C33.447 17.5591 33.5882 17.8413 33.8706 18.0143C34.153 18.1781 34.5083 18.301 34.9364 18.3829C35.3646 18.4648 35.8246 18.5331 36.3166 18.5877C36.8176 18.6332 37.2776 18.7379 37.6967 18.9017C38.1248 19.0656 38.4801 19.3159 38.7625 19.6527C39.0449 19.9895 39.1861 20.481 39.1861 21.1273C39.1861 21.5824 39.095 21.9829 38.9128 22.3288C38.7397 22.6656 38.4938 22.9478 38.1749 23.1753C37.8652 23.3938 37.4917 23.5622 37.0544 23.6805C36.6172 23.7898 36.1389 23.8444 35.6197 23.8444C35.1004 23.8444 34.6267 23.7533 34.1986 23.5713C33.7795 23.3892 33.4242 23.1435 33.1327 22.834C32.8412 22.5245 32.6135 22.165 32.4495 21.7554C32.2946 21.3366 32.2172 20.8997 32.2172 20.4446H33.3104C33.3104 21.1546 33.5244 21.7235 33.9526 22.1513C34.3899 22.57 34.9911 22.7794 35.7563 22.7794C36.5215 22.7794 37.1 22.6337 37.4917 22.3425C37.8925 22.0512 38.0929 21.6006 38.0929 20.9908C38.0929 20.572 37.9517 20.2717 37.6693 20.0896C37.3869 19.8985 37.0317 19.7574 36.6035 19.6663C36.1845 19.5662 35.7244 19.4889 35.2234 19.4342C34.7315 19.3705 34.2714 19.2613 33.8433 19.1065C33.4151 18.9518 33.0599 18.7151 32.7775 18.3966C32.4951 18.078 32.3539 17.6137 32.3539 17.0039C32.3539 16.5852 32.4358 16.2256 32.5998 15.9252C32.7638 15.6158 32.987 15.3609 33.2694 15.1606C33.5609 14.9604 33.9071 14.8102 34.3079 14.7101C34.7087 14.6099 35.146 14.5599 35.6197 14.5599C36.1389 14.5599 36.6081 14.6464 37.0271 14.8193C37.4462 14.9831 37.7969 15.2107 38.0793 15.502C38.3708 15.7933 38.594 16.1392 38.7488 16.5397C38.9037 16.9402 38.9811 17.368 38.9811 17.8231Z" fill="white"/>
<path d="M40.4666 23.8444V14.5599H41.5598V23.8444H40.4666ZM47.8455 23.8444V14.5599H48.9386V23.8444H47.8455ZM40.6716 14.5599H41.7374L45.2355 23.8444H44.1697L40.6716 14.5599ZM47.6678 14.5599H48.7336L45.2355 23.8444H44.1697L47.6678 14.5599Z" fill="white"/>
<path d="M50.4511 18.5877C50.4511 17.9505 50.524 17.3771 50.6697 16.8673C50.8246 16.3485 51.0478 15.9116 51.3393 15.5566C51.6308 15.1925 51.9952 14.9149 52.4325 14.7237C52.8697 14.5235 53.3707 14.4233 53.9355 14.4233C54.5003 14.4233 54.9968 14.5235 55.425 14.7237C55.8622 14.9149 56.2266 15.1925 56.5181 15.5566C56.8188 15.9116 57.0419 16.3485 57.1877 16.8673C57.3426 17.3771 57.42 17.9505 57.42 18.5877V19.8165C57.42 20.4446 57.3426 21.0181 57.1877 21.5369C57.0419 22.0466 56.8188 22.4836 56.5181 22.8477C56.2266 23.2117 55.8622 23.4939 55.425 23.6942C54.9968 23.8853 54.5003 23.9809 53.9355 23.9809C53.3707 23.9809 52.8697 23.8853 52.4325 23.6942C51.9952 23.4939 51.6308 23.2117 51.3393 22.8477C51.0478 22.4836 50.8246 22.0466 50.6697 21.5369C50.524 21.0272 50.4511 20.4537 50.4511 19.8165V18.5877ZM51.5306 18.5877V19.8165C51.5306 20.2808 51.5761 20.704 51.6672 21.0863C51.7583 21.4595 51.8995 21.7827 52.0908 22.0557C52.2913 22.3197 52.5418 22.5245 52.8424 22.6702C53.143 22.8158 53.5074 22.8886 53.9355 22.8886C54.3637 22.8886 54.7281 22.8158 55.0287 22.6702C55.3293 22.5245 55.5753 22.3197 55.7666 22.0557C55.9579 21.7827 56.0991 21.4595 56.1902 21.0863C56.2813 20.704 56.3268 20.2808 56.3268 19.8165V18.5877C56.3268 18.1235 56.2813 17.7048 56.1902 17.3316C56.0991 16.9493 55.9579 16.6261 55.7666 16.3622C55.5753 16.0891 55.3293 15.8797 55.0287 15.7341C54.7281 15.5885 54.3637 15.5156 53.9355 15.5156C53.5074 15.5156 53.143 15.5885 52.8424 15.7341C52.5418 15.8797 52.2913 16.0891 52.0908 16.3622C51.8995 16.6261 51.7583 16.9493 51.6672 17.3316C51.5761 17.7048 51.5306 18.1235 51.5306 18.5877Z" fill="white"/>
<path d="M65.691 17.8231H64.5978C64.5978 17.4863 64.5477 17.1859 64.4475 16.922C64.3473 16.6489 64.197 16.4168 63.9966 16.2256C63.8053 16.0254 63.5639 15.8752 63.2724 15.7751C62.99 15.6658 62.6666 15.6112 62.3022 15.6112C61.5643 15.6112 61.0223 15.7386 60.6761 15.9935C60.3299 16.2484 60.1568 16.6398 60.1568 17.1677C60.1568 17.5591 60.298 17.8413 60.5804 18.0143C60.8628 18.1781 61.2181 18.301 61.6463 18.3829C62.0744 18.4648 62.5345 18.5331 63.0264 18.5877C63.5274 18.6332 63.9875 18.7379 64.4065 18.9017C64.8347 19.0656 65.1899 19.3159 65.4723 19.6527C65.7547 19.9895 65.8959 20.481 65.8959 21.1273C65.8959 21.5824 65.8048 21.9829 65.6227 22.3288C65.4496 22.6656 65.2036 22.9478 64.8848 23.1753C64.575 23.3938 64.2015 23.5622 63.7643 23.6805C63.327 23.7898 62.8488 23.8444 62.3295 23.8444C61.8103 23.8444 61.3366 23.7533 60.9084 23.5713C60.4894 23.3892 60.1341 23.1435 59.8426 22.834C59.5511 22.5245 59.3233 22.165 59.1593 21.7554C59.0045 21.3366 58.927 20.8997 58.927 20.4446H60.0202C60.0202 21.1546 60.2343 21.7235 60.6624 22.1513C61.0997 22.57 61.7009 22.7794 62.4662 22.7794C63.2314 22.7794 63.8098 22.6337 64.2015 22.3425C64.6024 22.0512 64.8028 21.6006 64.8028 20.9908C64.8028 20.572 64.6616 20.2717 64.3792 20.0896C64.0968 19.8985 63.7415 19.7574 63.3134 19.6663C62.8943 19.5662 62.4343 19.4889 61.9332 19.4342C61.4413 19.3705 60.9813 19.2613 60.5531 19.1065C60.125 18.9518 59.7697 18.7151 59.4873 18.3966C59.2049 18.078 59.0637 17.6137 59.0637 17.0039C59.0637 16.5852 59.1457 16.2256 59.3096 15.9252C59.4736 15.6158 59.6968 15.3609 59.9792 15.1606C60.2707 14.9604 60.6169 14.8102 61.0177 14.7101C61.4185 14.6099 61.8558 14.5599 62.3295 14.5599C62.8488 14.5599 63.3179 14.6464 63.737 14.8193C64.156 14.9831 64.5067 15.2107 64.7891 15.502C65.0806 15.7933 65.3038 16.1392 65.4587 16.5397C65.6135 16.9402 65.691 17.368 65.691 17.8231Z" fill="white"/>
<path d="M67.1765 23.8444V14.5599H68.2696V23.8444H67.1765ZM67.805 20.1579V19.0792H71.0708C71.6903 19.0792 72.1731 18.9382 72.5193 18.656C72.8746 18.3738 73.0522 17.9551 73.0522 17.3998C73.0522 16.8537 72.8746 16.4259 72.5193 16.1164C72.1731 15.8069 71.6903 15.6522 71.0708 15.6522H67.805V14.5599H71.2758C71.6766 14.5599 72.0501 14.6327 72.3963 14.7783C72.7425 14.924 73.0431 15.1288 73.2982 15.3928C73.5623 15.6476 73.7673 15.948 73.9131 16.2939C74.0679 16.6307 74.1453 16.9993 74.1453 17.3998C74.1453 17.7912 74.0725 18.1553 73.9267 18.4921C73.781 18.8289 73.576 19.1202 73.3118 19.366C73.0567 19.6117 72.7561 19.8074 72.41 19.9531C72.0638 20.0896 71.6857 20.1579 71.2758 20.1579H67.805Z" fill="white"/>
<path d="M75.9997 23.8444V14.5599H77.0928V23.8444H75.9997ZM81.8754 23.8444V14.5599H82.9686V23.8444H81.8754ZM76.6282 19.5708V18.5058H82.34V19.5708H76.6282Z" fill="white"/>
<path d="M84.4759 23.8444V14.5599H85.5691V23.8444H84.4759ZM85.1045 15.6112V14.5599H90.8163V15.6112H85.1045ZM85.1045 23.8444V22.7794H90.8163V23.8444H85.1045ZM85.1045 19.7346V18.6696H90.2697V19.7346H85.1045Z" fill="white"/>
<path d="M100.059 23.8444H98.7059L95.7407 19.9394H97.0935L100.059 23.8444ZM92.9122 14.5599H94.0053V23.8444H92.9122V14.5599ZM93.5407 19.0792H96.8065C97.426 19.0792 97.9088 18.9382 98.255 18.656C98.6103 18.3738 98.7879 17.9551 98.7879 17.3998C98.7879 16.8537 98.6103 16.4259 98.255 16.1164C97.9088 15.8069 97.426 15.6522 96.8065 15.6522H93.5407V14.5599H97.0115C97.4123 14.5599 97.7858 14.6327 98.132 14.7783C98.4782 14.924 98.7788 15.1288 99.0339 15.3928C99.298 15.6476 99.503 15.948 99.6488 16.2939C99.8036 16.6307 99.8811 16.9993 99.8811 17.3998C99.8811 17.7912 99.8082 18.1553 99.6624 18.4921C99.5167 18.8289 99.3117 19.1202 99.0475 19.366C98.7925 19.6117 98.4918 19.8074 98.1457 19.9531C97.7995 20.0896 97.4214 20.1579 97.0115 20.1579H93.5407V19.0792Z" fill="white"/>
<path d="M102.096 23.8444V14.5599H103.189V23.8444H102.096ZM102.724 15.6112V14.5599H108.436V15.6112H102.724ZM102.724 23.8444V22.7794H108.436V23.8444H102.724ZM102.724 19.7346V18.6696H107.889V19.7346H102.724Z" fill="white"/>
<defs>
<radialGradient id="paint0_radial_19_82" cx="0" cy="0" r="1" gradientUnits="userSpaceOnUse" gradientTransform="translate(-1.11757 2.78969) rotate(33.647) scale(20.9962 20.9967)">
<stop stop-color="#E70463"/>
<stop offset="1" stop-color="#FF2727"/>
</radialGradient>
</defs>
</svg>
