<svg width="183" height="77" viewBox="0 0 183 77" fill="none" xmlns="http://www.w3.org/2000/svg">
<g clip-path="url(#clip0_14_77)">
<path d="M73.0535 27.5947C73.0535 30.7402 71.6612 31.8839 70.0368 32.7419L73.492 39.7088H69.2375L66.298 33.6518C65.9113 33.6518 65.5761 33.6518 65.344 33.6518C64.6737 33.6518 61.992 33.6518 61.1926 33.6518V39.7088H57.2734V21.5116H61.1926V21.5377C62.1468 21.5377 65.0088 21.5116 66.066 21.5116C68.2319 21.5116 73.0535 21.5116 73.0535 27.5947ZM65.7565 30.1162C66.8911 30.1162 69.418 30.1423 69.418 27.5947C69.418 25.0731 67.0458 25.0731 65.8339 25.0731C65.112 25.0731 62.224 25.0731 61.1926 25.0731V30.1162C62.0436 30.1162 65.4214 30.1162 65.7565 30.1162Z" fill="black"/>
<path d="M79.3193 39.7088H75.4258V25.229H79.3193V39.7088ZM79.3193 24.1892H75.4258V20.6538H79.3193V24.1892Z" fill="black"/>
<path d="M88.8399 30.8701C92.1145 31.3641 95.8276 31.936 95.8276 35.3934C95.8276 39.0068 93.2491 39.7088 88.8141 39.7088C85.5395 39.7088 83.2962 39.1109 82.136 37.941C81.1304 36.9272 80.1837 35.7054 80.2095 34.9516V34.6655H85.1785V34.7955C85.1785 36.0433 86.1068 36.6153 88.711 36.6153C90.2839 36.6153 91.7794 36.4072 91.7794 35.4454C91.7794 34.3536 90.387 34.1456 88.8141 33.9637C88.6079 33.9377 88.4016 33.9116 88.1953 33.8857C84.044 33.3397 81.4655 32.4039 81.4655 29.4924C81.4655 27.4647 82.6259 25.0471 88.1953 25.0471C94.1773 25.0471 95.4408 27.7246 95.4408 29.9603V30.0903H91.4442V29.9603C91.4442 28.8164 90.4644 28.1926 88.1953 28.1926C86.0037 28.1926 85.5395 28.9984 85.5395 29.4404C85.5395 30.0903 85.9779 30.4542 88.5048 30.8441L88.8399 30.8701Z" fill="black"/>
<path d="M112.457 33.3398H100.906C101.189 35.2895 102.349 36.2514 104.876 36.2514C107.223 36.2514 108.383 35.6015 108.744 34.6396H112.534C112.148 37.7851 109.621 39.7088 104.876 39.7088C99.9258 39.7088 97.1152 37.2132 97.1152 32.3519C97.1152 27.5947 100.003 24.9951 104.876 24.9951C106.913 24.9951 108.564 25.5151 109.775 26.3729V26.3469C112.56 28.2706 112.818 31.3381 112.612 33.3398H112.457ZM104.876 28.4525C102.711 28.4525 101.524 29.2584 101.06 30.7402H108.692C108.383 29.6483 107.661 28.4525 104.876 28.4525Z" fill="black"/>
<path d="M124.446 39.7088H120.553V25.229H124.446V39.7088ZM124.446 24.1892H120.553V20.6538H124.446V24.1892Z" fill="black"/>
<path d="M135.734 25.125C141.846 25.125 142 30.2982 142 32.4299V39.7087H138.107V32.4299C138.107 31.2861 138.339 28.5305 134.601 28.5305C131.196 28.5305 130.706 30.7142 130.706 32.6898V39.7087H126.787V25.125H130.706V27.2827H130.887C131.815 25.983 133.131 25.125 135.734 25.125Z" fill="black"/>
<path d="M36.5227 17.2107H24.3789V29.4738H36.5227V17.2107Z" fill="#8427FD"/>
<path d="M24.3177 29.4738H12.1738V41.737H24.3177V29.4738Z" fill="url(#paint0_linear_14_77)"/>
<path d="M24.3313 17.2107H12.1875V29.4738H24.3313V17.2107Z" fill="#CC45FF"/>
<path d="M12.1438 17.2107H0C0 17.2107 3.32598 21.0317 5.60033 23.3422C8.05768 25.8387 12.1438 29.4738 12.1438 29.4738V17.2107Z" fill="#41DABE"/>
<path d="M36.5227 29.4738H24.3789V41.737H36.5227V29.4738Z" fill="#CC45FF"/>
<path d="M36.5227 41.7368H24.3789C24.3789 41.7368 28.3882 45.5732 30.8855 48.1043C33.1226 50.3716 36.5227 54 36.5227 54V41.7368Z" fill="#41DABE"/>
<path fill-rule="evenodd" clip-rule="evenodd" d="M42.1342 14.0388L37.459 12.5976L41.9548 11.1128L43.6491 6.36255L45.1802 10.9619L49.7 12.5976L45.0207 14.1782L43.6491 18.693L42.1342 14.0388Z" fill="#020202"/>
</g>
<path d="M50.6 69V55.4H52.6V69H50.6ZM51.26 57.4V55.4H55.74C56.3667 55.4 56.94 55.4867 57.46 55.66C57.98 55.82 58.4267 56.0533 58.8 56.36C59.1733 56.6667 59.4667 57.04 59.68 57.48C59.8933 57.92 60 58.4133 60 58.96C60 59.6 59.8933 60.14 59.68 60.58C59.4667 61.02 59.1733 61.38 58.8 61.66C58.4267 61.9267 57.98 62.12 57.46 62.24C56.94 62.36 56.3667 62.42 55.74 62.42H51.26V61.02H55.54C55.9133 61.02 56.2533 60.9933 56.56 60.94C56.8667 60.8867 57.1267 60.7933 57.34 60.66C57.5533 60.5133 57.7133 60.3267 57.82 60.1C57.94 59.8733 58 59.5933 58 59.26C58 58.9133 57.94 58.6267 57.82 58.4C57.7133 58.16 57.5533 57.9667 57.34 57.82C57.1267 57.6733 56.8667 57.5667 56.56 57.5C56.2533 57.4333 55.9133 57.4 55.54 57.4H51.26ZM51.26 69V67H56.34C57.1 67 57.7 66.8467 58.14 66.54C58.58 66.2333 58.8 65.74 58.8 65.06C58.8 64.38 58.58 63.8733 58.14 63.54C57.7 63.1933 57.1 63.02 56.34 63.02H51.26V61.62H56.54C57.1667 61.62 57.74 61.6933 58.26 61.84C58.78 61.9867 59.2267 62.2133 59.6 62.52C59.9733 62.8133 60.2667 63.2 60.48 63.68C60.6933 64.16 60.8 64.7267 60.8 65.38C60.8 65.9133 60.6933 66.4 60.48 66.84C60.2667 67.28 59.9733 67.66 59.6 67.98C59.2267 68.3 58.78 68.5533 58.26 68.74C57.74 68.9133 57.1667 69 56.54 69H51.26ZM65.8063 69L62.0063 59H64.0063L67.6663 69H65.8063ZM66.4663 69L70.1063 59H72.1063L68.3063 69H66.4663ZM66.6663 68.02H68.6663L68.0463 69.7C67.8596 70.1933 67.6929 70.6267 67.5463 71C67.4129 71.3867 67.2463 71.7133 67.0463 71.98C66.8596 72.2467 66.6196 72.4467 66.3263 72.58C66.0329 72.7267 65.6396 72.8 65.1463 72.8H62.4663V70.8H65.3663C65.4863 70.8 65.5729 70.76 65.6263 70.68C65.6929 70.6133 65.7729 70.4733 65.8663 70.26L66.6663 68.02ZM78.5102 69V55.4H80.5102V69H78.5102ZM79.4302 63.6V61.64H84.2102C84.9968 61.64 85.6102 61.4667 86.0502 61.12C86.4902 60.76 86.7102 60.24 86.7102 59.56C86.7102 58.8667 86.4902 58.3333 86.0502 57.96C85.6235 57.5867 85.0102 57.4 84.2102 57.4H79.4302V55.4H84.5102C85.0968 55.4 85.6435 55.5067 86.1502 55.72C86.6568 55.9333 87.0968 56.2333 87.4702 56.62C87.8568 56.9933 88.1568 57.4333 88.3702 57.94C88.5968 58.4333 88.7102 58.9733 88.7102 59.56C88.7102 60.1333 88.6035 60.6667 88.3902 61.16C88.1768 61.6533 87.8768 62.08 87.4902 62.44C87.1168 62.8 86.6768 63.0867 86.1702 63.3C85.6635 63.5 85.1102 63.6 84.5102 63.6H79.4302ZM97.008 62.84C97.008 62.1733 96.828 61.6667 96.468 61.32C96.1213 60.9733 95.6013 60.8 94.908 60.8C94.6146 60.8 94.3346 60.84 94.068 60.92C93.8146 60.9867 93.588 61.1 93.388 61.26C93.188 61.4067 93.028 61.5867 92.908 61.8C92.788 62 92.728 62.24 92.728 62.52H90.728C90.728 62.08 90.8213 61.64 91.008 61.2C91.1946 60.76 91.468 60.36 91.828 60C92.188 59.64 92.628 59.3533 93.148 59.14C93.6813 58.9133 94.288 58.8 94.968 58.8C95.6746 58.8 96.2813 58.9067 96.788 59.12C97.2946 59.32 97.708 59.6133 98.028 60C98.3613 60.3867 98.608 60.8467 98.768 61.38C98.928 61.9133 99.008 62.5 99.008 63.14V67.2H99.648V69H98.868C98.4546 69 98.128 68.9533 97.888 68.86C97.648 68.7667 97.4613 68.62 97.328 68.42C97.1946 68.22 97.108 67.9667 97.068 67.66C97.028 67.3533 97.008 66.9733 97.008 66.52V62.84ZM98.168 62.76V64.36C98.168 64.36 98.0546 64.3667 97.828 64.38C97.6146 64.3933 97.348 64.4133 97.028 64.44C96.708 64.4533 96.368 64.4733 96.008 64.5C95.648 64.5267 95.3213 64.5533 95.028 64.58C94.628 64.6067 94.2546 64.6533 93.908 64.72C93.5746 64.7733 93.2813 64.8667 93.028 65C92.788 65.12 92.6013 65.28 92.468 65.48C92.3346 65.6667 92.268 65.9 92.268 66.18C92.268 66.66 92.4213 67 92.728 67.2C93.048 67.4 93.4946 67.5 94.068 67.5C94.6413 67.5 95.1146 67.4133 95.488 67.24C95.8746 67.0667 96.1746 66.84 96.388 66.56C96.6146 66.28 96.7746 65.9667 96.868 65.62C96.9613 65.2733 97.008 64.9267 97.008 64.58C97.1546 64.5667 97.2746 64.56 97.368 64.56C97.4613 64.56 97.548 64.56 97.628 64.56C97.708 64.56 97.748 64.56 97.748 64.56C97.748 65.1733 97.6613 65.76 97.488 66.32C97.328 66.88 97.068 67.3733 96.708 67.8C96.348 68.2267 95.8813 68.5667 95.308 68.82C94.748 69.0733 94.0613 69.2 93.248 69.2C92.2613 69.2 91.5146 68.9333 91.008 68.4C90.5146 67.8667 90.268 67.1467 90.268 66.24C90.268 65.6533 90.388 65.16 90.628 64.76C90.8813 64.36 91.2213 64.0333 91.648 63.78C92.088 63.5267 92.5946 63.34 93.168 63.22C93.7413 63.0867 94.348 63.0067 94.988 62.98C95.3213 62.9533 95.668 62.9267 96.028 62.9C96.4013 62.8733 96.748 62.8533 97.068 62.84C97.4413 62.8133 97.808 62.7867 98.168 62.76ZM104.264 56H106.264V66.46C106.264 66.58 106.271 66.68 106.284 66.76C106.297 66.8267 106.317 66.88 106.344 66.92C106.384 66.9467 106.437 66.9667 106.504 66.98C106.571 66.9933 106.657 67 106.764 67H110.704V69H107.164C106.177 69 105.444 68.7467 104.964 68.24C104.497 67.7333 104.264 66.9467 104.264 65.88V56ZM110.704 59V60.9H101.284V59H110.704ZM111.929 69V67.1H121.329V69H111.929ZM117.729 68.28H115.729V61.52C115.729 61.4 115.722 61.3067 115.709 61.24C115.709 61.1733 115.689 61.12 115.649 61.08C115.609 61.04 115.555 61.02 115.489 61.02C115.435 61.0067 115.349 61 115.229 61H111.929V59H114.749C115.749 59 116.495 59.26 116.989 59.78C117.482 60.2867 117.729 61.06 117.729 62.1V68.28ZM115.589 57.94V56H117.689V57.94H115.589ZM122.553 69V54H124.553V69H122.553ZM132.353 59L123.193 67.44V64.66L129.453 59H132.353ZM132.753 69H130.193L125.953 63.78L127.433 62.44L132.753 69ZM140.699 62.84C140.699 62.1733 140.519 61.6667 140.159 61.32C139.813 60.9733 139.293 60.8 138.599 60.8C138.306 60.8 138.026 60.84 137.759 60.92C137.506 60.9867 137.279 61.1 137.079 61.26C136.879 61.4067 136.719 61.5867 136.599 61.8C136.479 62 136.419 62.24 136.419 62.52H134.419C134.419 62.08 134.513 61.64 134.699 61.2C134.886 60.76 135.159 60.36 135.519 60C135.879 59.64 136.319 59.3533 136.839 59.14C137.373 58.9133 137.979 58.8 138.659 58.8C139.366 58.8 139.973 58.9067 140.479 59.12C140.986 59.32 141.399 59.6133 141.719 60C142.053 60.3867 142.299 60.8467 142.459 61.38C142.619 61.9133 142.699 62.5 142.699 63.14V67.2H143.339V69H142.559C142.146 69 141.819 68.9533 141.579 68.86C141.339 68.7667 141.153 68.62 141.019 68.42C140.886 68.22 140.799 67.9667 140.759 67.66C140.719 67.3533 140.699 66.9733 140.699 66.52V62.84ZM141.859 62.76V64.36C141.859 64.36 141.746 64.3667 141.519 64.38C141.306 64.3933 141.039 64.4133 140.719 64.44C140.399 64.4533 140.059 64.4733 139.699 64.5C139.339 64.5267 139.013 64.5533 138.719 64.58C138.319 64.6067 137.946 64.6533 137.599 64.72C137.266 64.7733 136.973 64.8667 136.719 65C136.479 65.12 136.293 65.28 136.159 65.48C136.026 65.6667 135.959 65.9 135.959 66.18C135.959 66.66 136.113 67 136.419 67.2C136.739 67.4 137.186 67.5 137.759 67.5C138.333 67.5 138.806 67.4133 139.179 67.24C139.566 67.0667 139.866 66.84 140.079 66.56C140.306 66.28 140.466 65.9667 140.559 65.62C140.653 65.2733 140.699 64.9267 140.699 64.58C140.846 64.5667 140.966 64.56 141.059 64.56C141.153 64.56 141.239 64.56 141.319 64.56C141.399 64.56 141.439 64.56 141.439 64.56C141.439 65.1733 141.353 65.76 141.179 66.32C141.019 66.88 140.759 67.3733 140.399 67.8C140.039 68.2267 139.573 68.5667 138.999 68.82C138.439 69.0733 137.753 69.2 136.939 69.2C135.953 69.2 135.206 68.9333 134.699 68.4C134.206 67.8667 133.959 67.1467 133.959 66.24C133.959 65.6533 134.079 65.16 134.319 64.76C134.573 64.36 134.913 64.0333 135.339 63.78C135.779 63.5267 136.286 63.34 136.859 63.22C137.433 63.0867 138.039 63.0067 138.679 62.98C139.013 62.9533 139.359 62.9267 139.719 62.9C140.093 62.8733 140.439 62.8533 140.759 62.84C141.133 62.8133 141.499 62.7867 141.859 62.76ZM144.975 69V66.1H147.855V69H144.975ZM156.977 64C156.977 64.6533 156.924 65.2933 156.817 65.92C156.724 66.5333 156.544 67.0867 156.277 67.58C156.01 68.0733 155.63 68.4667 155.137 68.76C154.657 69.0533 154.03 69.2 153.257 69.2C152.657 69.2 152.104 69.08 151.597 68.84C151.09 68.6 150.65 68.2533 150.277 67.8C149.904 67.3467 149.61 66.8 149.397 66.16C149.197 65.52 149.097 64.8 149.097 64C149.097 63.1867 149.197 62.46 149.397 61.82C149.61 61.18 149.904 60.64 150.277 60.2C150.65 59.7467 151.09 59.4 151.597 59.16C152.104 58.92 152.657 58.8 153.257 58.8C154.03 58.8 154.657 58.9467 155.137 59.24C155.63 59.5333 156.01 59.9267 156.277 60.42C156.557 60.9 156.744 61.4533 156.837 62.08C156.93 62.6933 156.977 63.3333 156.977 64ZM156.517 64C156.517 62.8267 156.284 61.94 155.817 61.34C155.364 60.74 154.684 60.44 153.777 60.44C152.87 60.44 152.184 60.74 151.717 61.34C151.264 61.94 151.037 62.8267 151.037 64C151.037 65.16 151.264 66.04 151.717 66.64C152.184 67.24 152.87 67.54 153.777 67.54C154.684 67.54 155.364 67.24 155.817 66.64C156.284 66.04 156.517 65.16 156.517 64ZM158.477 69H156.477V66.06L156.617 63.94L156.477 61.92V54.4H158.477V69ZM160.563 64.5V63.02H168.063L169.043 64L169.023 64.5H160.563ZM166.883 65.66H168.863C168.596 66.78 168.076 67.6533 167.303 68.28C166.529 68.8933 165.549 69.2 164.363 69.2C162.909 69.2 161.763 68.74 160.923 67.82C160.083 66.9 159.663 65.6267 159.663 64C159.663 62.3867 160.083 61.12 160.923 60.2C161.763 59.2667 162.909 58.8 164.363 58.8C165.816 58.8 166.956 59.2667 167.783 60.2C168.623 61.12 169.043 62.3867 169.043 64H167.103C167.103 62.8267 166.869 61.94 166.403 61.34C165.949 60.74 165.269 60.44 164.363 60.44C163.456 60.44 162.769 60.7467 162.303 61.36C161.849 61.96 161.623 62.84 161.623 64C161.623 65.16 161.856 66.04 162.323 66.64C162.789 67.24 163.469 67.54 164.363 67.54C165.029 67.54 165.569 67.3867 165.983 67.08C166.409 66.7733 166.709 66.3 166.883 65.66ZM174.068 69L170.268 59H172.268L175.928 69H174.068ZM174.828 69L178.468 59H180.468L176.668 69H174.828Z" fill="#0D0D0D"/>
<defs>
<linearGradient id="paint0_linear_14_77" x1="12.1738" y1="31.0353" x2="22.6537" y2="38.8989" gradientUnits="userSpaceOnUse">
<stop stop-color="#41DABE"/>
<stop offset="1" stop-color="#B4FF24"/>
</linearGradient>
<clipPath id="clip0_14_77">
<rect width="142" height="54" fill="white"/>
</clipPath>
</defs>
</svg>
